<svg width="28.381mm" height="21.703mm" version="1.1" viewBox="0 0 28.381 21.703" xmlns="http://www.w3.org/2000/svg">
 <g transform="translate(-52.71 -47.967)">
  <g fill="#34377f">
   <path d="m74.34 55.572q-.48621-.74992-1.4092-1.162-.91474-.42028-2.0602-.42028-1.4751 0-2.464 1.3433-1.0713 1.4504-1.0713 3.7908 0 2.7113 1.1867 4.0051 1.0384 1.129 2.6536 1.129 2.2003 0 3.6837-1.5411.21427.37908.21427.65103 0 .49446-.9477 1.1949-1.607 1.1702-3.659 1.1702-2.2333 0-3.6013-1.5658-1.3597-1.5658-1.3597-4.1287 0-1.7471.63455-3.2634.63455-1.5246 1.7553-2.4723 1.6399-1.3845 4.1452-1.3845 1.4174 0 2.1921.37084.78289.37084.78289 1.0466 0 .65928-.67575 1.2361z" stroke-width=".26458" style="shape-inside:url(#rect3158);white-space:pre"/>
   <g transform="matrix(.2826 0 0 .33553 38.622 38.392)" stroke-width=".85924">
    <path d="m115.43 90.465c5.2177-.76893 10.728-1.7877 13.978-2.465 5.3546-1.1155 14.636-4.6854 18.206-7.675 3.5697-2.9896 2.8558-5.9348 1.7849-8.4336-1.0709-2.4988-6.1577-6.024-5.2653-5.3547.89243.66932 2.1844 3.0295 2.1586 5.087-.0459 3.656.14555 4.8068-3.4688 7.9749-3.6143 3.1681-6.7663 5.0544-12.924 7.3301-3.3837 1.2505-9.4974 2.5662-14.469 3.5362z" style="shape-inside:url(#rect3158);white-space:pre"/>
    <path d="m57.12 62.688-4.3174-1.2957-1.3895 2.9538c-.84799 2.1724-1.6216 6.4012-1.5611 8.3039.17848 5.6223.31253 11.869 14.458 17.536 14.145 5.6669 43.684 1.6505 43.684 1.6505s3.3637-.57677 7.4399-1.372c-3.3763.49756-6.6315.89273-9.0682 1.0154-6.2024.31235-23.511 1.3293-34.239-1.1317-10.728-2.4611-12.445-5.5879-15.714-10.5-1.9723-2.9629-1.7386-6.7255-1.4708-10.115.19137-2.4216 2.1788-7.0458 2.1788-7.0458z" style="shape-inside:url(#rect3158);white-space:pre"/>
   </g>
   <path d="m59.419 47.967c-.38415 0-.77136.13814-1.1612.41496-.68922 1.2146-1.641 3.2459-2.8556 6.0932l-1.3761 3.2587-.87361 2.2486-.32344 1.4888 1.0751.31202.30282-.8077.66042-1.7616c.46227-1.0529.88555-2.2509 1.0775-2.9342h4.6183l.17777.53382c.55364 1.644.9916 2.7428 1.3136 3.2964.32202.55364.68358.83044 1.0847.83044.58754 0 1.1129-.2768 1.5761-.83044-.88695-.63274-1.7456-2.1805-2.5761-4.6436l-.25425-.76275-.39843-1.1524c-.43501-1.2937-.78506-2.4349-1.0506-3.4236l-.38137-1.4407c-.12994-.4802-.34185-.71985-.63562-.71985zm-.81338 1.8981c.11299.44065.31078 1.1183.59324 2.0335l.43202 1.3901.42375 1.2454.20309.65267h-3.9486l.17777-.45785.56793-1.4655c.42935-1.1129.94632-2.2458 1.5508-3.3982z" stroke-width=".26458" style="shape-inside:url(#rect3158);white-space:pre"/>
  </g>
 </g>
</svg>
