<svg width="100.43mm" height="45.273mm" version="1.1" viewBox="0 0 100.43 45.273" xmlns="http://www.w3.org/2000/svg">
 <g transform="translate(-8.6432 -48.971)">
  <g transform="matrix(.29062 0 0 .29062 -12.791 19.148)" fill="#000080" stroke-width=".91041" style="shape-inside:url(#rect3158);white-space:pre" aria-label="Akademia Chiropraktyki">
   <g fill="#34377f">
    <path transform="matrix(.91041 0 0 .91041 44.014 -65.886)" d="m68.752 185.09c-1.4519 0-2.9154.52211-4.3887 1.5684-2.6049 4.5907-6.2023 12.268-10.793 23.029l-5.2012 12.316-9.7889 25.077c-3.205 8.2105-6.1288 24.193-5.9006 31.384.67459 21.25 1.1812 44.861 54.643 66.279 53.461 21.418 165.11 6.2383 165.11 6.2383s12.713-2.1799 28.119-5.1856c-12.761 1.8806-25.064 3.3741-34.273 3.8379-23.442 1.1805-88.861 5.0243-129.41-4.2773-40.546-9.3017-64.624-23.55-74.068-40.752-9.4443-17.202-2.9717-45.73-1.4329-49.836l10.183-27.172c1.7472-3.9793 3.347-8.5073 4.0723-11.09h17.455l.67188 2.0176c2.0925 6.2135 3.7478 10.366 4.9648 12.459 1.2171 2.0925 2.5836 3.1387 4.0996 3.1387 2.2206 0 4.2062-1.0462 5.957-3.1387-3.3523-2.3914-6.5976-8.2413-9.7363-17.551l-.96094-2.8828-1.5059-4.3555c-1.6441-4.8896-2.9672-9.2028-3.9707-12.939l-1.4414-5.4453c-.4911-1.8149-1.292-2.7207-2.4023-2.7207zm211.79 160.71c19.72-2.9062 40.545-6.7566 52.832-9.3164 20.238-4.2162 55.317-17.708 68.809-29.008 13.492-11.299 10.794-22.431 6.7461-31.875-4.0475-9.4443-23.273-22.768-19.9-20.238 3.373 2.5297 11.636 11.806 14.166 19.227s1.3499 18.046-12.311 30.02c-13.66 11.974-32.381 19.225-55.654 27.826-12.789 4.7263-35.896 9.699-54.688 13.365zm-214.87-153.53c.42705 1.6655 1.1746 4.2265 2.2422 7.6855l1.6328 5.2539 1.6016 4.707.76758 2.4668h-14.924l.67188-1.7305 2.1465-5.5391c1.6228-4.2064 3.5767-8.4879 5.8613-12.844z" stroke-width="1"/>
    <path d="m132.84 135.31v5.4688q0 2.3242.19531 3.6133t.66406 2.207q-.95703.66406-2.4023.66406-1.2695 0-1.8164-.625-.52734-.64453-.52734-2.1094l.0391-2.1289v-20.254q0-2.8711-.25391-4.9609-.15625-1.1524-.42968-1.7774-.25391-.625-1.0352-1.5625 1.6992-.82031 3.0664-.82031 1.4844 0 2.0703.97656.58594.95703.58594 3.3789l-.0977 3.2031-.0586 3.0859v11.309q3.2226-4.4922 5.9961-6.6602 3.5156-2.7539 5.1562-2.7539 1.6602 0 1.9727 2.832-2.2461 0-5.0781 1.7383-2.8125 1.7383-4.9023 4.4336l.625.72266 2.2656 2.7734q3.0664 3.7305 5.8594 5.3906 1.0742.64453 2.7148.9375-1.1523 2.8516-3.3203 2.8516-1.1328 0-2.3438-.89844-1.2109-.89843-3.1836-3.2617-3.6328-4.3164-5.7617-7.7734z"/>
    <path d="m162.06 134.35v-1.0352q0-3.5352-.76172-4.8047t-2.8711-1.2695q-3.6523 0-5.332 4.6875-.97656-.27344-1.6797-.9375-.6836-.66406-.6836-1.3086 0-1.6016 2.8125-2.9883 2.8125-1.3867 6.0547-1.3867 3.9453 0 5.3906 1.7383.56641.68359.74219 1.7383.19531 1.0352.19531 3.6914v6.1719q0 3.1641.33204 4.5703.33203 1.3867 1.3672 2.5977-1.7773 1.4258-3.2422 1.4258-1.1133 0-1.6016-.50781-.48828-.52735-.60547-1.8555l-.11718-1.1133q-3.3203 3.7305-7.0117 3.7305-2.3242 0-3.75-1.4844-1.4062-1.5039-1.4062-3.9844 0-3.5938 3.0273-5.625 3.0274-2.0508 8.3594-2.0508zm0 6.7383v-4.5508q-8.2617 0-8.2617 5.0391 0 1.3867.72265 2.207.74219.82031 1.9922.82031t2.7344-.9375q1.5039-.95703 2.8125-2.5781z"/>
    <path d="m187.88 143.04q-1.9922 2.4609-3.7695 3.457-1.7578.9961-4.1797.9961-3.5938 0-5.7617-2.5586-2.1484-2.5586-2.1484-6.8164 0-5.293 3.4766-9.043 3.4961-3.75 8.418-3.75 1.7188 0 3.2812.46875v-2.8516q0-3.8672-.39063-5.4688-.37109-1.6016-1.6797-3.2422 1.5234-1.2109 3.3789-1.2109 1.4844 0 2.0703 1.1328.60547 1.1328.60547 3.9648l-.0195 2.0117-.0781 2.4219-.0195 2.3828v9.4727q0 4.8633.52735 7.2656.54687 2.3828 2.0703 4.2578-1.9141 1.3086-3.3594 1.3086-1.1719 0-1.6797-.85937-.48828-.85938-.74219-3.3398zm-.27344-2.207-.15625-1.2891-.11719-2.1289-.11718-1.8555-.0195-2.0898v-4.5703q-1.7969-1.0352-3.8086-1.0352-3.5547 0-5.1953 2.2266-1.8359 2.5-1.8359 6.6797 0 7.4609 5.3711 7.4609 1.543 0 2.8711-.76172 1.3477-.78125 3.0078-2.6367z"/>
    <path d="m213.95 140.99q.58594.85938.58594 1.543 0 .95703-1.3867 2.2656-2.8516 2.6953-7.168 2.6953-4.1797 0-6.6406-2.8125-2.4609-2.8125-2.4609-7.6172 0-4.7266 2.8516-8.2617 2.8125-3.4766 7.5586-3.4766 3.0664 0 4.6875 1.25 1.6406 1.25 1.6406 3.5938 0 3.2812-3.5938 5.5273-3.5938 2.2266-8.8672 2.2266.39062 3.0859 1.9141 4.7266 1.543 1.6211 4.0234 1.6211 3.6914 0 6.8555-3.2812zm-12.871-5.2148q8.7891-.48828 8.7891-5.2148 0-1.4648-.9375-2.3438-.91797-.89843-2.4219-.89843-2.8125 0-4.2383 2.8125-1.2109 2.3438-1.2109 5.0195z"/>
    <path d="m239.21 145.89q-1.6797 1.3477-3.1445 1.3477-2.0312 0-2.0312-2.9883l.0781-2.6758.0391-2.9297v-4.4141q0-2.793-.48828-4.0234t-1.6211-1.2305q-3.0078 0-7.5391 7.9688v3.9453q0 4.043.9375 5.4883-1.2695.85937-2.8125.85937-1.1914 0-1.6406-.625-.42969-.625-.42969-2.3242l.0391-2.2852.0586-1.6211v-6.1914q0-3.1836-.3711-4.6094-.37109-1.4258-1.5234-2.6758 1.8945-1.3477 3.2422-1.3477 1.3867 0 1.9336.97657.5664.97656.5664 3.3984v3.2617q2.2461-4.1797 4.2969-6.0156 2.0508-1.8555 4.3945-1.8555 2.832 0 4.0625 2.4219.74219 1.4844.74219 5.4492 2.2461-4.1602 4.2969-6.0156t4.3945-1.8555q2.8125 0 4.0625 2.4219.74219 1.4648.74219 5.4492v5.7227q0 2.6367.29297 4.2969.29297 1.6602.91797 2.6758-1.6797 1.3477-3.1445 1.3477-1.9336 0-1.9336-2.8516l.0195-2.6172v-7.5391q0-2.793-.50781-4.0234-.48828-1.2305-1.6016-1.2305-3.0078 0-7.5391 7.9688v1.9727q0 2.6172.29297 4.2969.29296 1.6797.91796 2.6758z"/>
    <path d="m262.7 119.7q-1.3672.68359-2.9297.68359-1.0156 0-1.3477-.39062-.33203-.39063-.33203-1.6016v-.72265q0-1.1719-.72265-1.875 2.0312-.72266 3.3008-.72266 2.2461 0 2.2461 2.3047 0 .39062-.0781 1.1328l-.0781.625zm1.9336 26.211q-1.6992 1.3281-3.1445 1.3281-1.0938 0-1.543-.64453t-.44922-2.1875l.0391-2.6172v-10.41q0-2.2461-1.4844-4.2774 1.8945-1.543 3.3398-1.543 2.1094 0 2.1094 3.3398l-.0195 1.7578-.0977 2.4414v5.8398q0 2.6367.29297 4.3164.3125 1.6602.95703 2.6562z"/>
    <path d="m282.04 134.35v-1.0352q0-3.5352-.76172-4.8047t-2.8711-1.2695q-3.6523 0-5.332 4.6875-.97656-.27344-1.6797-.9375-.68359-.66406-.68359-1.3086 0-1.6016 2.8125-2.9883 2.8125-1.3867 6.0547-1.3867 3.9453 0 5.3906 1.7383.56641.68359.74219 1.7383.19531 1.0352.19531 3.6914v6.1719q0 3.1641.33203 4.5703.33204 1.3867 1.3672 2.5977-1.7773 1.4258-3.2422 1.4258-1.1133 0-1.6016-.50781-.48828-.52735-.60547-1.8555l-.11718-1.1133q-3.3203 3.7305-7.0117 3.7305-2.3242 0-3.75-1.4844-1.4062-1.5039-1.4062-3.9844 0-3.5938 3.0273-5.625 3.0273-2.0508 8.3594-2.0508zm0 6.7383v-4.5508q-8.2617 0-8.2617 5.0391 0 1.3867.72265 2.207.74219.82031 1.9922.82031t2.7344-.9375q1.5039-.95703 2.8125-2.5781z"/>
    <path d="m127.11 172.32q-1.673-2.5804-4.8489-3.9983-3.1476-1.4462-7.0891-1.4462-5.0758 0-8.4785 4.6221-3.6863 4.9907-3.6863 13.044 0 9.3292 4.0833 13.781 3.5729 3.8848 9.1308 3.8848 7.5711 0 12.675-5.3026.73726 1.3044.73726 2.2402 0 1.7014-3.261 4.1117-5.5295 4.0266-12.59 4.0266-7.6846 0-12.392-5.3877-4.6788-5.3877-4.6788-14.207 0-6.0116 2.1834-11.229 2.1834-5.2459 6.0399-8.5069 5.6429-4.7639 14.263-4.7639 4.8773 0 7.5428 1.276 2.6939 1.276 2.6939 3.6012 0 2.2685-2.3252 4.2535z" stroke-width=".91042"/>
    <path d="m139.39 205.88q-1.2695.87891-2.7344.87891-1.2695 0-1.6992-.625-.42969-.64453-.42969-2.4805l.0195-2.2461.0586-1.5234v-16.953q0-3.0274-.39063-5.7812-.2539-1.8359-1.7383-3.5547l.74219-.35156q1.5039-.70313 2.4219-.70313 1.4844 0 2.1484.99609.68359.97657.68359 3.1836v15.996q1.9336-3.75 4.4531-5.8203 2.5391-2.0703 5.1758-2.0703 3.1641 0 4.2578 2.5.6836 1.6016.6836 5.3906v5.7227q0 2.6172.29297 4.2969.29296 1.6602.91796 2.6758-1.6992 1.3477-3.125 1.3477-1.1133 0-1.543-.64453-.42969-.64453-.42969-2.3242l.0391-2.5v-7.5391q0-2.8711-.52734-4.0625-.50782-1.2109-1.7188-1.2109-1.7188 0-4.1992 2.3242-2.4609 2.3242-4.2774 5.6641v3.9844q0 3.7695.91797 5.4297z"/>
    <path d="m164.25 179.22q-1.3672.68359-2.9297.68359-1.0156 0-1.3477-.39062-.33203-.39063-.33203-1.6016v-.72265q0-1.1719-.72266-1.875 2.0312-.72266 3.3008-.72266 2.2461 0 2.2461 2.3047 0 .39062-.0781 1.1328l-.0781.625zm1.9336 26.211q-1.6992 1.3281-3.1445 1.3281-1.0938 0-1.543-.64453t-.44922-2.1875l.0391-2.6172v-10.41q0-2.2461-1.4844-4.2774 1.8945-1.543 3.3398-1.543 2.1094 0 2.1094 3.3398l-.0195 1.7578-.0976 2.4414v5.8398q0 2.6367.29297 4.3164.3125 1.6602.95703 2.6562z"/>
    <path d="m176.89 192.46q1.7969-3.3398 4.4141-5.4883 2.6367-2.1484 4.9219-2.1484 1.1914 0 1.9531.68359.76171.66406.76171 1.6797 0 1.5625-2.1094 3.6133-.89844-1.875-2.3828-1.875-3.3203 0-7.5586 7.0312v3.3398l.0781 1.582.0781 2.2852q0 1.6016.76172 2.9297-1.2891.66406-2.3633.66406-2.5195 0-2.5195-2.8711l.0391-2.2266.0781-4.9219v-3.1055q0-3.2031-.3711-4.6094-.37109-1.4258-1.543-2.6758 1.8945-1.2695 3.2617-1.2695 1.3867 0 1.9336.95703.5664.95704.5664 3.3398z"/>
    <path d="m199.92 207.01q-4.1797 0-6.6797-2.5781-2.4805-2.5781-2.4805-6.9141 0-2.9883 1.4258-5.8398 1.4453-2.8516 3.8867-4.6875 2.8516-2.168 6.9922-2.168 4.1016 0 6.582 2.5976 2.4805 2.5977 2.4805 6.8945 0 3.0078-1.4453 5.8594-1.4258 2.832-3.8867 4.6875-2.8516 2.1484-6.875 2.1484zm1.4453-2.6562q3.1055 0 4.8242-2.207 1.7188-2.2266 1.7188-6.2305 0-3.8672-1.7383-6.1524-1.7383-2.2852-4.668-2.2852-3.1055 0-4.8242 2.2266-1.6992 2.207-1.6992 6.2109 0 3.8672 1.7188 6.1523 1.7383 2.2852 4.668 2.2852z"/>
    <path d="m221.81 186.94q3.1445-2.1094 7.0117-2.1094 3.9062 0 6.2109 2.3438 2.3242 2.3242 2.3242 6.25 0 3.3594-1.7383 6.4062-1.7188 3.0273-4.668 4.9023-3.6133 2.2852-7.5391 2.2852-.54687 0-1.6016-.0781v5.0586q0 2.4609.21484 3.9453.21485 1.4844.6836 2.3828-1.5039.97656-2.5586.97656-1.3476 0-1.8945-.89843-.52734-.87891-.52734-3.125 0-1.2891.0781-2.8125l.13672-3.457v-16.992q0-2.4024-.27344-3.4766-.27343-1.0742-1.1133-2.0312 1.5234-1.4258 3.1641-1.4258 2.0898 0 2.0898 1.8555zm0 2.793v14.375q1.0547.27344 2.168.27344 3.2031 0 5-1.1914 1.7969-1.2109 2.9102-3.6719 1.1328-2.4805 1.1328-5.2344 0-2.8711-1.4844-4.6484-1.4648-1.7773-3.8281-1.7773-2.6172 0-5.8984 1.875z"/>
    <path d="m247.01 192.46q1.7969-3.3398 4.4141-5.4883 2.6367-2.1484 4.9219-2.1484 1.1914 0 1.9531.68359.76172.66406.76172 1.6797 0 1.5625-2.1094 3.6133-.89844-1.875-2.3828-1.875-3.3203 0-7.5586 7.0312v3.3398l.0781 1.582.0781 2.2852q0 1.6016.76172 2.9297-1.2891.66406-2.3633.66406-2.5195 0-2.5195-2.8711l.0391-2.2266.0781-4.9219v-3.1055q0-3.2031-.37109-4.6094-.37109-1.4258-1.543-2.6758 1.8945-1.2695 3.2617-1.2695 1.3867 0 1.9336.95703.56641.95704.56641 3.3398z"/>
    <path d="m273.63 193.87v-1.0352q0-3.5352-.76171-4.8047-.76172-1.2695-2.8711-1.2695-3.6523 0-5.332 4.6875-.97656-.27344-1.6797-.9375-.68359-.66406-.68359-1.3086 0-1.6016 2.8125-2.9883 2.8125-1.3867 6.0547-1.3867 3.9453 0 5.3906 1.7383.56641.68359.74219 1.7383.19531 1.0352.19531 3.6914v6.1719q0 3.1641.33203 4.5703.33203 1.3867 1.3672 2.5977-1.7773 1.4258-3.2422 1.4258-1.1133 0-1.6016-.50781-.48828-.52735-.60547-1.8555l-.11719-1.1133q-3.3203 3.7305-7.0117 3.7305-2.3242 0-3.75-1.4844-1.4062-1.5039-1.4062-3.9844 0-3.5938 3.0273-5.625 3.0273-2.0508 8.3594-2.0508zm0 6.7383v-4.5508q-8.2617 0-8.2617 5.0391 0 1.3867.72265 2.207.74219.82031 1.9922.82031t2.7344-.9375q1.5039-.95703 2.8125-2.5781z"/>
    <path d="m289.59 194.83v5.4688q0 2.3242.19531 3.6133t.66406 2.207q-.95703.66406-2.4023.66406-1.2695 0-1.8164-.625-.52734-.64453-.52734-2.1094l.0391-2.1289v-20.254q0-2.8711-.25391-4.9609-.15625-1.1524-.42968-1.7774-.25391-.625-1.0352-1.5625 1.6992-.82031 3.0664-.82031 1.4844 0 2.0703.97656.58594.95703.58594 3.3789l-.0977 3.2031-.0586 3.0859v11.309q3.2226-4.4922 5.9961-6.6602 3.5156-2.7539 5.1562-2.7539 1.6602 0 1.9727 2.832-2.2461 0-5.0781 1.7383-2.8125 1.7383-4.9023 4.4336l.625.72266 2.2656 2.7734q3.0664 3.7305 5.8594 5.3906 1.0742.64453 2.7148.9375-1.1523 2.8516-3.3203 2.8516-1.1328 0-2.3438-.89844-1.2109-.89843-3.1836-3.2617-3.6328-4.3164-5.7617-7.7734z"/>
    <path d="m321.11 201.95.15625.64453q.15625.58594.15625.91797 0 1.2695-1.8555 2.3828-1.8555 1.1133-4.0039 1.1133-2.8125 0-4.375-1.9922-.83985-1.0742-1.1914-2.5195-.33203-1.4648-.33203-4.0234v-10.742h-.37109q-3.125 0-4.9024 1.0547-.15625-.66406-.15625-1.0938 0-1.3672 1.0742-1.875 1.0938-.50781 3.9844-.50781h.37109v-1.0742q0-4.043-1.3086-6.1133 1.3672-.50781 2.8125-.50781 1.4258 0 1.9531.8789.54688.87891.54688 3.2422 0 1.1328-.13672 3.5742h3.2812q2.4023 0 5-.83985.0391.58594.0391.87891 0 1.2891-.78125 1.8359-.78125.54687-2.6562.54687h-4.8828v11.016q0 2.9297.64453 4.043.64453 1.0938 2.3828 1.0938 2.4609 0 4.5508-1.9336z"/>
    <path d="m331.71 206.33q-1.9336-6.1133-4.7461-11.855-1.5625-3.2031-2.6172-4.6289-1.0352-1.4453-2.3047-2.1289.76172-1.1719 1.7774-1.8945 1.0156-.74219 1.8555-.74219 1.6211 0 2.9883 3.0274l1.8164 4.0234q1.6797 3.6914 3.7695 10.586 2.7539-4.2383 4.6094-9.082 1.875-4.8438 1.875-7.7734l-.0195-.68359q.74219-.0977 1.1523-.0977.95703 0 1.5234.54688.58594.54687.58594 1.4648 0 1.4648-2.1484 6.6406-2.1484 5.1367-5.625 10.508t-7.2852 9.4336q-4.1406 4.4141-7.8516 4.4141-2.0703 0-2.0703-1.7578 0-1.4648 1.0938-2.8516.8789.56641 1.543.56641 3.9062 0 10.078-7.7148z"/>
    <path d="m353.02 194.83v5.4688q0 2.3242.19531 3.6133t.66406 2.207q-.95703.66406-2.4023.66406-1.2695 0-1.8164-.625-.52734-.64453-.52734-2.1094l.0391-2.1289v-20.254q0-2.8711-.25391-4.9609-.15625-1.1524-.42968-1.7774-.25391-.625-1.0352-1.5625 1.6992-.82031 3.0664-.82031 1.4844 0 2.0703.97656.58594.95703.58594 3.3789l-.0977 3.2031-.0586 3.0859v11.309q3.2226-4.4922 5.9961-6.6602 3.5156-2.7539 5.1562-2.7539 1.6602 0 1.9727 2.832-2.2461 0-5.0781 1.7383-2.8125 1.7383-4.9023 4.4336l.625.72266 2.2656 2.7734q3.0664 3.7305 5.8594 5.3906 1.0742.64453 2.7148.9375-1.1523 2.8516-3.3203 2.8516-1.1328 0-2.3438-.89844-1.2109-.89843-3.1836-3.2617-3.6328-4.3164-5.7617-7.7734z"/>
    <path d="m375.09 179.22q-1.3672.68359-2.9297.68359-1.0156 0-1.3477-.39062-.33203-.39063-.33203-1.6016v-.72265q0-1.1719-.72265-1.875 2.0312-.72266 3.3008-.72266 2.2461 0 2.2461 2.3047 0 .39062-.0781 1.1328l-.0781.625zm1.9336 26.211q-1.6992 1.3281-3.1445 1.3281-1.0938 0-1.543-.64453t-.44922-2.1875l.0391-2.6172v-10.41q0-2.2461-1.4844-4.2774 1.8945-1.543 3.3398-1.543 2.1094 0 2.1094 3.3398l-.0195 1.7578-.0977 2.4414v5.8398q0 2.6367.29297 4.3164.3125 1.6602.95703 2.6562z"/>
   </g>
  </g>
 </g>
</svg>
