<svg width="75.142mm" height="26.966mm" version="1.1" viewBox="0 0 75.142 26.966" xmlns="http://www.w3.org/2000/svg">
 <ellipse transform="matrix(-.18809 -.98215 .98216 -.18804 0 0)" cx="-132.59" cy="15.817" rx="117.35" ry="117.35" fill="none" style="paint-order:fill markers stroke"/>
 <ellipse transform="matrix(-.18809 .98215 .98216 .18804 0 0)" cx="-101.51" cy="19.59" rx="117.35" ry="117.35" fill="none" style="paint-order:fill markers stroke"/>
 <text transform="matrix(.26458 0 0 .26458 -.429 -.016958)" fill="#000000" font-family="sans-serif" font-size="40px" style="line-height:1.25;shape-inside:url(#rect89789);white-space:pre" xml:space="preserve"/>
 <g transform="translate(-17.66 -31.597)" stroke-linecap="round" stroke-linejoin="bevel">
  <g transform="translate(1.7612 1.7345)">
   <ellipse cx="53.47" cy="43.346" rx="37.571" ry="13.029" fill="#3f4381" stroke-linecap="round" stroke-linejoin="bevel" stroke-width="2" style="paint-order:fill markers stroke"/>
   <g transform="translate(22.512 35.042)">
    <g transform="translate(-6.6125 -4.7204)">
     <path d="m5.3191 13.022h-5.3185a37.571 13.029 0 00-.00051676.0078 37.571 13.029 0 0037.571 13.029 37.571 13.029 0 0032.714-6.6296 35.162 10.531 0 01-29.948 5.0235 35.162 10.531 0 01-35.162-10.531 35.162 10.531 0 01.14263-.89969z" fill="#696fc7" stroke-width="2" style="paint-order:fill markers stroke"/>
     <path d="m75.138 13.022h-5.3149c-1.5418 5.6396-16.759 9.9745-35.022 9.9765-17.335.000211-32.079-3.912-34.741-9.2205 1.1081 7.1432 17.568 12.729 37.505 12.729 20.75 0 37.571-6.0362 37.57-13.482l-.00053-.0032z" fill="#222546" stroke-width="2" style="paint-order:fill markers stroke"/>
    </g>
    <g transform="translate(-6.6104 -4.7162)" stroke-width="7.5591">
     <path transform="scale(.26458)" d="m141.99-.015625a142 49.245 0 00-123.64 25.057 132.89 39.801 0 01113.19-18.986 132.89 39.801 0 01132.89 39.803 132.89 39.801 0 01-.52539 3.3594h20.088a142 49.245 0 00-142-49.232z" fill="#222445" style="paint-order:fill markers stroke"/>
     <path d="m37.57-.46302c-20.741-1.2e-6-37.559 6.0361-37.57 13.485h5.3186c1.5594-5.6394 16.771-9.9713 35.02-9.9732 17.335-.0002109 32.08 3.9213 34.742 9.234-1.1081-7.1489-17.569-12.745-37.506-12.746z" fill="#696fc7" stroke-width="2" style="paint-order:fill markers stroke"/>
    </g>
    <g transform="translate(-6.6125 -4.7204)">
     <path d="m5.3191 13.022h-5.3185a37.571 13.029 0 00-.00051676.0078 37.571 13.029 0 0037.571 13.029 37.571 13.029 0 0032.714-6.6296 35.162 10.531 0 01-29.948 5.0235 35.162 10.531 0 01-35.162-10.531 35.162 10.531 0 01.14263-.89969z" fill="#696fc7" stroke-width="2" style="paint-order:fill markers stroke"/>
     <path d="m75.138 13.022h-5.3149c-1.5418 5.6396-16.759 9.9745-35.022 9.9765-17.335.000211-32.079-3.912-34.741-9.2205 1.1081 7.1432 17.568 12.729 37.505 12.729 20.75 0 37.571-6.0362 37.57-13.482l-.00053-.0032z" fill="#222546" stroke-width="2" style="paint-order:fill markers stroke"/>
    </g>
    <g transform="translate(-6.6104 -4.7162)" stroke-width="7.5591">
     <path transform="scale(.26458)" d="m141.99-.015625a142 49.245 0 00-123.64 25.057 132.89 39.801 0 01113.19-18.986 132.89 39.801 0 01132.89 39.803 132.89 39.801 0 01-.52539 3.3594h20.088a142 49.245 0 00-142-49.232z" fill="#222445" style="paint-order:fill markers stroke"/>
     <path d="m37.57-.46302c-20.741-1.2e-6-37.559 6.0361-37.57 13.485h5.3186c1.5594-5.6394 16.771-9.9713 35.02-9.9732 17.335-.0002109 32.08 3.9213 34.742 9.234-1.1081-7.1489-17.569-12.745-37.506-12.746z" fill="#696fc7" stroke-width="2" style="paint-order:fill markers stroke"/>
    </g>
   </g>
  </g>
 </g>
 <g transform="rotate(-1.9909 48.726 128.57)" fill="#bbc6ef" style="white-space:pre" aria-label="AKUPUNKTURA">
  <path d="m22.312 8.7885q.02284.1321-.55891.4117.18066.71343.26842 1.221.15148.876-.07099.91447-.11819.02044-.21296-.11354t-.199-.48829q-.16408-.65901-.33031-1.289-.29843.13753-.54364.25154-.24642.10706-.7426.34323-.33529 1.7048-.44652 1.7241-.11124.01924-.26618-.09002-.14919-.11741-.17564-.27036-.01202-.06952.22556-1.0558l-.04867.0084q-.13905.02404-.26591-.0471-.11992-.07235-.14276-.20444-.02405-.13905.62577-.48055.06796-.26952.10262-.48316.09137-.42394.2574-1.1615.16602-.73758.21004-.93852.04281-.20789.20768-.37245.17062-.17271.35138-.20397.21552-.03727.5014.62216.29283.65823.57265 1.6552.19106-.054521.33706-.079768.31286-.054102.34412.12666zm-2.2482.53914q.47078-.21746 1.0044-.40282-.33073-1.1672-.55232-1.7447-.18902.7702-.45207 2.1475z"/>
  <path d="m23.769 11.02q-.09787.01336-.25265-.12929-.14874-.1506-.1726-.32536-.02482-.18176.18904-2.0055.21386-1.8237.15276-2.2711-.01718-.12583.0041-.17859t.11915-.066116q.10486-.014318.27426.1833.1694.19762.20758.47725t-.13729 1.7064q.51779-.95371 1.1246-1.7771.60584-.83043.79458-.8562.13981-.01909.27106.055562.13824.073698.15065.16458.01145.083888-.2821.4373-.28752.34546-.77232.9671t-.80882 1.2213q.03913.28662.23875.60117.32104.52585 1.1336.79231.35052.11592.54755.20296.20402.08608.22025.20492.02482.18176-.24782.21898-.27264.03723-.58851-.03358-.31683-.0778-.64606-.24647-.32924-.16868-.62767-.47686-.2924-.31613-.4396-.71617-.16421.41408-.26705 1.069-.12951.77251-.17845.7792z"/>
  <path d="m27.886 5.7393q-.012-.11934.01184-.16429.02314-.051965.12142-.061851.1053-.010592.29285.162.18684.16558.21226.4183.02472.2457-.15154 1.3838-.16924 1.1374-.12899 1.5376.03954.39313.21168.624.17214.23088.4038.20757.23166-.023302.48564-.31831.25397-.29501.44958-.74725.20192-.45996.30125-1.094.10564-.64174.04209-1.2736-.02966-.29485-.09441-.58616-.05774-.29202-.0648-.36222-.01483-.14742.11153-.16013.16146-.016241.39678.20828.23461.2175.27274.59659.10874 1.0811-.11184 2.0606t-.69691 1.6018q-.47704.61528-1.0808.676-.44227.04449-.81529-.35056-.366-.39575-.42178-.95034t.11973-1.7707q.1748-1.2231.13314-1.6373z"/>
  <path d="m35.063 6.1228q.0503.76034-.64694 1.3368-.69021.57599-1.8717.88749-.39889 1.7729-.49745 1.7794t-.24257-.13951q-.14448-.15307-.15472-.30796-.01071-.16192.14827-.85833.49435-2.1469.46756-2.9795-.17921-.14371-.18759-.27043-.01164-.176.45638-.3696t.90451-.22247q.67586-.044713 1.1281.27184.45931.31609.49611.87226zm-.61674.083228q-.02049-.30977-.2729-.49106-.24583-.1888-.57672-.1669-.33089.021891-.78861.2643.08065.15023.0895.28399.02608.39425-.23458 1.6913.82992-.28118 1.3178-.70943.49442-.43576.46555-.87225z"/>
  <path d="m36.246 5.1234q-.0038-.11988.02306-.16309.02664-.05026.12537-.053394.10578-.00336.28107.18167.17507.17798.18313.43185.0078.24682-.24592 1.3702-.2467 1.1232-.23394 1.5251.01254.39491.16847.63703t.38864.23473q.23272-.00739.50629-.28432t.49968-.71472q.23294-.44506.37543-1.0708.14932-.633.12917-1.2677-.0094-.29618-.05407-.59125-.03761-.29529-.03985-.36581-.0047-.14809.12223-.15212.1622-.00515.38159.23495.21917.23305.23126.61386.03448 1.086-.25264 2.0481-.28711.9621-.80493 1.5503-.51804.58118-1.1245.60043-.44428.014105-.78938-.40554-.33805-.41987-.35574-.97698t.24066-1.7583q.25812-1.2082.24491-1.6243z"/>
  <path d="m43.423 5.1098q.01615-.30329.14315-.30243.13405.0009029.28818.16422.15413.16332.15327.29032-.0039.57854-.19451 1.6427-.18356 1.0642-.49307 1.9723-.30246.90815-.57056.90634-.09172-.0006177-.21104-.093146-.11227-.092481-.17486-.22696-.20834-.4953-1.2277-3.141-.21718.817-.48521 1.8524-.26093 1.0284-.3475 1.31-.08657.28165-.15006.28122-.09172-.0006177-.22473-.15674-.1259-.16313-.12476-.33246.0011-.16933.47195-1.9795.47086-1.8172.48801-2.2687.0015-.22577.12146-.22496.07761.0005227.21076.13548.14025.12795.20271.28359 1.1161 2.9568 1.415 3.6221.46677-1.2104.63335-2.8956.07578-.77562.07621-.83912z"/>
  <path d="m44.949 9.8112q-.09868-.00445-.22528-.17261-.11924-.17488-.11129-.35109.0083-.18326.54654-1.9388.53827-1.7555.55862-2.2066.0057-.12687.03614-.17494.03042-.048067.1291-.043615.10573.00477.23684.22963t.11839.5068-.44187 1.6539q.68083-.84507 1.4258-1.546.74527-.70797.93558-.69938.14097.00636.25666.10339.12274.097352.1186.18898-.0038.084581-.35613.37945-.34495.28814-.93362.81247t-1.0152 1.056q-.01304.28898.12677.6343.22126.575.97268.98322.32396.17706.50213.2981.18522.12136.17981.24118-.0083.18326-.28316.17086-.27488-.012401-.57288-.13885-.29768-.1335-.59122-.35862t-.5317-.58194q-.2308-.36355-.30366-.78354-.23599.3778-.45491 1.0036-.2663.73664-.31564.73441z"/>
  <path d="m50.719 5.8234-1.2072-.03916q-.11254-.00893-.22038-.16612-.10785-.15719-.09669-.29786.01005-.1266.41374-.12996.41073-.0028 1.7823.10602.71038.056364 1.1553.24737.45193.19157.43686.38147-.0106.13364-.24271.11522-.2321-.018416-.64485-.079475-.41274-.061059-.79199-.098228.01552.072009.0088.15641-.02065.26024-.74058 2.376-.07413.22061-.22461.68995-.15048.46935-.22182.65478-.12805.36496-.20541.35882-.1055-.0084-.22686-.17371-.11377-.17181-.10093-.33358t.51151-1.6298q.49923-1.475.61555-2.1382z"/>
  <path d="m53.867 5.7099q.01358-.11917.04642-.15804.03363-.045875.13178-.034687.10515.011987.25182.22044.14747.20144.1187.45381-.02797.24536-.44165 1.3202-.40667 1.0756-.45222 1.4752-.04475.39257.07449.65471t.35058.28851q.23134.026371.54211-.20805.31077-.23442.59786-.63487.2949-.40666.52646-1.0052.23937-.60473.31129-1.2356.03356-.29443.03208-.59285.0055-.29762.01351-.36772.01678-.14721.14296-.13283.16123.01838.34357.28771.18314.26232.13998.64087-.12306 1.0796-.5464 1.99-.42334.91041-1.0208 1.4175-.5967.50008-1.1996.43135-.44164-.05034-.72237-.51552-.27372-.46438-.21059-1.0182.06313-.5538.49261-1.705.43028-1.1582.47743-1.5718z"/>
  <path d="m57.039 10.877q-.10466-.01574-.21413-.18918t-.08638-.32693q.02414-.16047.6115-1.4563.58736-1.2958.74918-1.9921-.08231-.069461-.13423-.19857-.05193-.12911-.03828-.21981.02414-.16047.52377-.25655.50068-.10305 1.0728-.016987.5791.087117.95574.42917.38467.33613.3091.83848-.05143.34188-.29192.6125-.23246.2647-.53988.41109-.30044.14745-.59459.25303t-.5042.17387q-.20202.062363-.20832.10422-.02309.1535.17739.43338.20746.28093.2915.38633.08403.1054.22142.28303.13843.17066.26013.31026.12868.14065.20085.22999.07916.09039.15726.18776.15029.18671.13559.28439-.02519.16745-.25543.13281-.41862-.06298-1.0839-.9051-.66425-.8491-.76205-1.3847-.49166 1.0391-.56674 1.2062-.07403.1601-.16411.33206-.16621.34601-.22203.33762zm1.6319-3.6859q-.06822.45351-.5187 1.456.13226-.072859.49339-.1969.36219-.13102.64936-.23766.2952-.11256.55625-.33015t.30199-.48969q.06508-.43258-.68845-.54593-.34188-.05143-.82162.054772.04668.16399.02779.28958z"/>
  <path d="m64.783 9.7115q-.02471.13176-.66748.19066-.07979.73161-.17475 1.2378-.16389.87376-.3858.83214-.11789-.02211-.15992-.18075-.04203-.15863-.016-.52704.07632-.67483.14051-1.3232-.32767.024684-.59726.045905-.26829.014286-.8157.062361-.90941 1.4805-1.0204 1.4597-.11095-.02081-.218-.17728-.09881-.1621-.07019-.31467.01301-.06935.57997-.91058l-.04854-.0091q-.13869-.02601-.23274-.13698-.08711-.10966-.0624-.24142.02601-.13869.75416-.23183.15778-.22884.26484-.41693.23364-.36536.64672-.99856.41309-.6332.52449-.80613.1127-.17986.32465-.2765.22018-.10227.40048-.068455.21497.040322.25264.75807.0446.71905-.04129 1.751.19807.015615.3437.04293.31206.058531.27824.23883zm-2.2949-.2797q.51707-.039409 1.0818-.026804.09759-1.2092.09157-1.8277-.44603.65574-1.1734 1.8545z"/>
 </g>
 <g transform="rotate(-.15416 234.24 1929.5)" fill="#bbc6ef" style="white-space:pre" aria-label="CHIROPRAKTYKA">
  <path d="m20.818 14.859q.18075.03131.32872.29324.15492.26313.12843.41608-.02529.14599-.0809.13636-.04866-.0084-.18623-.08238-.13636-.0809-.25454-.10137-.27113-.04696-.70861.16369-.43053.21186-.84917.56182-.41169.35117-.74653.83738-.33363.47926-.39986.86162t.09713.59683q.17151.20872.4913.26411t.6761.02401q.35751-.03833.59349-.11918.60794-.20261.66356-.19298.11818.02047.09049.18037-.02649.15294-.39204.36173-.36435.20184-.87321.32852t-.88427.06166q-.48664-.08429-.84542-.57607-.35758-.49873-.26968-1.0062.11319-.65349.67935-1.4004.57432-.75264 1.3453-1.2349.7779-.48108 1.3966-.37391z"/>
  <path d="m21.705 20.005q-.08391-.0113-.20626-.21288-.12141-.20857-.09881-.37639t.49227-1.3291q-.08619-.04721-.14482-.14053-.05069-.09938-.03562-.21126.01224-.0909.39092-.1538.71525-1.7689.77459-2.2094.01601-.11887.04963-.15706.04155-.04424.13246-.03199.09789.01319.22253.25067.13163.23843.0949.51113-.03579.26571-.56019 1.5691.94843-.06447 1.844-8e-4.55251-1.4064.60808-1.8189.02826-.20977.1681-.19094.11887.01601.2505.25444t.09961.47617q-.03108.23075-.50585 1.3771.31506.09227.29528.23911-.01884.13985-.46461.17236-.33489.79497-.46213 1.1053-.1193.3043-.19368.4865t-.15575.36346q-.14781.35741-.22473.34705-.09789-.01319-.20909-.19191-.10326-.18477-.07971-.35958t.6616-1.7405q-1.0397.0023-1.8823.07395-.14687.35042-.28392.6808-.12912.32433-.20349.50654-.07438.1822-.15574.36346-.14781.35741-.21774.34799z"/>
  <path d="m26.386 20.578q-.0842-.0088-.20685-.192-.11563-.18241-.10088-.32275.01474-.14034.61968-1.9142.6127-1.7802.66542-2.2145.01253-.11929.04502-.15844.04024-.04543.13848-.03511.10525.01106.24379.24554.14555.23522.11901.48783-.0258.24559-.74703 2.2485-.06902.1843-.19082.53331-.12106.342-.19009.5263-.06902.1843-.14875.40294-.16278.40147-.24699.39262z"/>
  <path d="m28.424 20.807q-.10551-.0082-.22708-.17342-.12157-.16519-.10949-.31994.01263-.16179.50605-1.4962.49342-1.3344.60515-2.0405-.08705-.06341-.14806-.18848t-.05387-.21652q.01263-.16179.50413-.29326.49205-.13851 1.0689-.09348.58384.04558.98392.3599.40767.30783.36813.81429-.02691.34467-.24748.63177-.21299.28061-.50918.44856-.28916.1685-.57502.2948t-.49051.2094q-.19706.07662-.20036.11882-.01208.15475.20786.41962.22698.26542.31831.36455.09134.09913.24104.26651.15025.16035.2816.29091.13838.13111.21675.21508.0854.08451.17026.17606.16322.17552.15554.27399-.01318.16882-.24531.1507-.42205-.03295-1.1457-.82546-.72313-.79954-.8589-1.3268-.41627 1.0715-.47924 1.2435-.06242.16498-.14.34292-.1411.35699-.19738.3526zm1.3647-3.7929q-.0357.45722-.4135 1.4893.12672-.08211.47809-.2316.35192-.15653.63075-.28338.28641-.13333.53128-.36899.24486-.23566.26628-.50999.03405-.43612-.72564-.49543-.34467-.02691-.81562.11325.05826.16024.04838.28686z"/>
  <path d="m34.263 20.196q.48271-.39638.83948-.98872.35706-.59939.37984-1.1422.02278-.5428-.1745-.89004-.19023-.34695-.4722-.35878-.28197-.01184-.72328.40747-.4413.41931-.80956 1.1171-.36796.69073-.39518 1.3393-.01627.38771.14256.64154.15912.24678.3847.25625.35247.01479.82813-.38189zm-.8938.93701q-.46526-.01953-.79849-.49253-.32619-.47271-.30636-.94501.02692-.64149.28736-1.2944.26749-.65258.64067-1.1312.38023-.47836.82326-.77049.44332-.29917.80989-.28379.59215.02485.96413.58422.37228.55232.34387 1.2291-.0284.67674-.43338 1.4083-.40468.7245-1.0543 1.2269-.64224.49562-1.2767.46899z"/>
  <path d="m40.113 17.491q-.0054.76198-.74292 1.2859-.73046.524-1.9315.74831-.52741 1.739-.62619 1.7383-.09878-.000701-.23173-.15687-.1329-.16322-.1318-.31844.0012-.16227.21062-.84519.64996-2.1051.68409-2.9374-.16823-.15642-.16733-.28342.0013-.17638.48217-.33525.48092-.15887.91835-.15576.67732.0048 1.1052.35358.43498.34882.43102.90619zm-.62117.03793q.0022-.31044-.23628-.50969-.23138-.20626-.56298-.20861-.3316-.0024-.80582.20595.06945.15572.0685.28977-.0028.3951-.35758 1.6697.84825-.21976 1.3661-.61121.52495-.39845.52806-.83588z"/>
  <path d="m40.675 21.263q-.1058.0029-.24399-.1487-.13819-.15155-.14238-.30672-.0044-.16222.34664-1.541.35102-1.3787.38823-2.0926-.09321-.05395-.16697-.17195t-.07624-.20969q-.0044-.16222.47066-.34442.47485-.18926 1.0532-.20485.5854-.01579 1.0162.25492.43765.26347.45134.77128.0093.3456-.17999.6542-.18244.30136-.45943.4994-.26993.19785-.541.35338t-.46589.2596q-.18796.09682-.18682.13914.0042.15517.25064.39556.25351.2402.35473.32922.10121.08903.26762.23982.16621.14374.31051.25984.15135.11591.23807.19121.09378.07511.18775.15727.1807.15746.18336.25621.0046.16927-.22818.17555-.42318.01141-1.2258-.70099-.80285-.71945-.99306-1.2296-.30182 1.1092-.34644 1.2869-.04481.1706-.10334.35569-.10296.3698-.15938.37132zm.96021-3.9149q.01236.45844-.25534 1.5244.11743-.09492.45122-.28038.3336-.19251.59762-.34785.27088-.16258.48973-.42258t.21143-.53506q-.01179-.43728-.77352-.41674-.3456.0093-.79929.19801.07471.15326.07814.28022z"/>
  <path d="m47.902 18.478q.0084.13379-.6001.34894.10256.72876.135 1.2428.056.88724-.16933.90146-.11971.0076-.19946-.13587-.07975-.14343-.14511-.50692-.09196-.67288-.18918-1.3171-.31154.1045-.56763.19136-.25654.07982-.77532.26102-.51743 1.6587-.6301 1.6658-.11266.0071-.2549-.11823-.13564-.13283-.14542-.28774-.0044-.07042.33826-1.0252l-.04929.0031q-.14083.0089-.25927-.07554-.1114-.08487-.11985-.21866-.0089-.14083.674-.41016.09666-.26061.15419-.46926.13662-.41159.38132-1.1269.2447-.71534.31016-.91035.06501-.20205.24669-.34784.18827-.15328.37135-.16483.21829-.01378.43129.67267.22004.686.39055 1.7074.19583-.03357.3437-.0429.31687-.02.32843.16308zm-2.2933.29321q.49151-.16535 1.042-.292-.20275-1.1961-.36068-1.7941-.27109.74528-.68133 2.0861z"/>
  <path d="m49.097 20.8q-.09829.0098-.24778-.13838-.14317-.1559-.16067-.33142-.0182-.18254.26179-1.9973.27999-1.8147.2352-2.2641-.0126-.12637.01059-.17832.02318-.05194.12148-.06174.10531-.0105.26742.19315t.1901.48448-.19921 1.7003q.55211-.93426 1.1884-1.7351.63561-.80787.82517-.82676.14042-.014.26887.06538.13547.07867.14457.16994.0084.08425-.2978.42676-.29988.33479-.80696.93839-.50707.60361-.85267 1.1911.02869.28785.21674.60945.30172.53717 1.1041.83298.34607.12858.53981.22272.20076.09344.21266.21279.0182.18254-.25561.20983-.27381.0273-.5869-.05494-.31379-.08926-.63668-.26979t-.60993-.49935q-.28072-.32654-.41328-.73167-.17915.40784-.30573 1.0586-.1575.7673-.20664.7722z"/>
  <path d="m53.916 15.91-1.1883.2165q-.11188.01502-.25048-.11586-.1386-.13089-.15737-.27074-.0169-.12587.377-.21435.40089-.08942 1.7645-.27251.70627-.09483 1.1815-.002.48218.09187.50753.28068.01784.13286-.21292.16385-.23076.03098-.64709.05841-.41633.02742-.79488.07113.03037.06711.04163.15102.03474.25873-.22245 2.4788-.0259.23128-.07393.72182-.04804.49053-.07863.68685-.04814.38376-.12506.39409-.10489.01408-.25841-.12192-.14746-.14393-.16906-.30477t.15603-1.701q.17668-1.5472.15042-2.2199z"/>
  <path d="m58.103 17.118q.12523-.02112.35248-.66764.23303-.65465.47302-1.3105.24695-.657.39305-.68164t.25415.06446.13269.23521q.02464.1461-.16581.629t-.51368 1.2816q-.3244.7917-.62768 1.7086t-.43505 1.1538q-.13177.23688-.23613.25448-.15306.02582-.1953-.22465-.03286-.1948.09506-.62423.04267-.12884.06455-.21123.0207-.08936.07259-.24837t.08072-.24258q.02766-.09053.08299-.27158.06111-.18919.08994-.27276-.42808-.03513-.84518-.38693-.41132-.35994-.67787-.83731-.26772-.48433-.34987-.97134-.08214-.48701.19615-.53395.11132-.01878.21031.18634.10595.20394.27141.59104.16546.38709.38298.70101.21634.30696.47888.50596.26253.199.41559.17318z"/>
  <path d="m60.964 19.136q-.09676.01986-.2607-.11216-.15844-.14035-.1939-.31314-.03687-.1797.05498-2.0136.09186-1.8339.0011-2.2762-.02553-.12441-.0078-.17846.01772-.05405.11448-.07391.10367-.02127.28587.16462t.23892.46236q.05673.27646-.02328 1.7118.45309-.98609 1.0037-1.8481.54915-.86895.73576-.90724.13823-.02837.27416.03737.14284.06432.16128.15417.01702.08294-.25234.45512-.26386.36385-.70616 1.0164-.4423.65256-.72564 1.2725.05815.28337.27828.58393.35536.50329 1.1839.71501.35746.09231.55985.16602.2093.07229.23341.18979.03687.1797-.23268.23501t-.58944.0057q-.32131-.05651-.66105-.20288-.33974-.14636-.65805-.43397-.31282-.29594-.48634-.68528-.13626.4241-.19523 1.0844-.07775.77943-.12613.78935z"/>
  <path d="m67.613 15.156q.03169.13026-.52991.44841.2283.69964.35004 1.2001.21014.86381-.0092.91718-.11655.02835-.22012-.09894-.10358-.12729-.23144-.47378-.2081-.64646-.41638-1.2638-.28849.15732-.52547.28758-.23865.12341-.71779.39246-.2197 1.7236-.32939 1.7502-.10969.02669-.27163-.07188-.15676-.10709-.19345-.25792-.01668-.06856.15394-1.0686l-.04799.01168q-.13711.03336-.26848-.02908-.12452-.06411-.1562-.19436-.03336-.13711.59198-.5216.04965-.27349.06984-.48898.06261-.42913.17858-1.1762.11597-.74708.14635-.95053.02871-.2103.18213-.38559.1586-.18381.33685-.22717.21252-.0517.54217.58698.3365.63701.68284 1.6129.18695-.06727.33092-.10229.3085-.07505.35186.1032zm-2.2068.68934q.45506-.24867.97497-.46955-.4086-1.1423-.66857-1.7035-.13672.78118-.3064 2.1731z"/>
 </g>
 <g transform="translate(-15.468 -2.1658)">
  <path d="m44.422 7.1013a7.3965 7.3965 0 00-4.8881 1.8517 9.0537 9.0537 0 012.367 1.5611 6.1307 6.1307 0 00-5.5783 3.2688 6.1307 6.1307 0 00-.53049 4.3001 7.5042 7.5042 0 015.4792-1.5182c.06536.05611.10137.08651.17051.14589.40985.35194.75698.70535 1.0502 1.0559-.33434 1.235-.14201 2.4859.18188 3.5038-.01607.03274-.03134.0652-.04547.09725-.23904.54207-.1922.99664-.0095 1.3319.08358.15336.19318.27953.31008.38713h-.17114v.45723h.96562c.04268.01336.09347.02905.09347.02905l.0076-.02905h.81973v-.45723h-.50902c.10691-.39048.23192-1.0456.17114-1.8573-.02763-.36904-.09439-.77126-.21725-1.1949.13076-.12078.26997-.2447.42502-.37387.07962-.06632.08362-.0695.14652-.12188a5.9557 5.9557 0 011.7481.18062 5.9557 5.9557 0 012.6152 1.4942 4.8656 4.8656 0 00.07704-.2444 4.8656 4.8656 0 00-3.4299-5.9655 4.8656 4.8656 0 00-1.157-.16546 4.8656 4.8656 0 00-.26398.01515l.34861-.66627a9.0537 9.0537 0 012.7737-.45723 9.0537 9.0537 0 014.4296 1.1576 7.3965 7.3965 0 00.01643-.38965 7.3965 7.3965 0 00-7.3965-7.3965zm-.88604 5.3952a9.0537 9.0537 0 01.75595 1.5782l-.41744.80079a4.8656 4.8656 0 00-1.6249.4667 5.9557 5.9557 0 01.89236.93846l-.28419.54438c-.09969.19115-.18345.38435-.25325.57848-.27469-.31329-.59005-.62735-.95235-.93846-.02768-.02377-.04112-.03548-.0682-.05873a7.5042 7.5042 0 01.73953-2.2262 7.5042 7.5042 0 011.2125-1.6837zm-.18062 4.0721a5.9557 5.9557 0 011.0275 2.78c-.03114.02593-.0443.03703-.07642.06378-.11777.09811-.2212.19156-.32587.28546-.22574-.63765-.58383-1.3164-1.1317-2.0026.07451-.24326.17121-.48462.29493-.72184zm-.6069 1.5214c.47856.63897.78453 1.2633.97446 1.8466-.35146.33855-.62398.65179-.81784.93783-.23396-.84374-.3576-1.819-.15662-2.7844zm1.0768 2.1977c.08716.34069.13664.66438.15915.96498.05967.797-.06689 1.4261-.16736 1.7803-.19668-.33858-.52262-.95043-.78752-1.7462.16212-.28805.4196-.62142.79573-.99908zm-.98898 1.4494c.21837.5759.44776 1.0189.62459 1.33-.20424-.11604-.42989-.28733-.55828-.52291-.11288-.20712-.16546-.46213-.06631-.8071z" color="#000000" fill="#bbc6ef" fill-opacity=".40472" stroke-linecap="round" stroke-linejoin="bevel" stroke-width=".065" style="-inkscape-stroke:none;paint-order:fill markers stroke"/>
  <g transform="translate(-2.3812,1.6536)">
   <path d="m40.272 47.287a.0015305.0015305 0 01-.0015.0015.0015305.0015305 0 01-.0015-.0015.0015305.0015305 0 01.0015-.0015.0015305.0015305 0 01.0015.0015z" color="#000000" fill="#222445" stroke-width=".26458" style="-inkscape-stroke:none"/>
   <path d="m40.268 47.152c-.000205 4e-6-.0506.01164-.05078.01172-.000178 7.8e-5-.04088.02721-.04102.02734-.000135.000135-.02727.04279-.02734.04297-7.7e-5.000178-.01171.04862-.01172.04883v.0059c4e-6.000206.01164.0506.01172.05078 7.8e-5.000178.02721.04088.02734.04102.000135.000136.04084.02922.04102.0293.000178 7.7e-5.05058.0098.05078.0098h.0059c.000206-4e-6.0506-.0097.05078-.0098.000178-7.7e-5.04088-.02916.04102-.0293.000136-.000135.02922-.04084.0293-.04102 7.7e-5-.000178.0098-.05058.0098-.05078v-.0059c-4e-6-.000205-.0097-.04865-.0098-.04883-7.7e-5-.000178-.02916-.04283-.0293-.04297-.000135-.000135-.04084-.02727-.04102-.02734-.000178-7.7e-5-.05058-.01171-.05078-.01172h-.002zm0 .0039h.0059c-.000205-4e-6.04901.0098.04883.0098-.000178-7.8e-5.04115.02748.04102.02734-.000135-.000135.02742.04119.02734.04102-7.7e-5-.000178.01172.04903.01172.04883v.0059c4e-6-.000205-.0118.04901-.01172.04883 7.7e-5-.000178-.02748.04115-.02734.04102.000135-.000135-.04119.02742-.04102.02734.000177-7.7e-5-.04903.01172-.04883.01172h-.0059c.000206 4e-6-.04901-.0118-.04883-.01172.000178 7.7e-5-.04115-.02748-.04102-.02734.000136.000135-.02742-.04119-.02734-.04102 7.7e-5.000177-.0098-.04903-.0098-.04883v-.0059c-4e-6.000206.0098-.04901.0098-.04883-7.8e-5.000178.02748-.04115.02734-.04102-.000135.000136.04119-.02742.04102-.02734-.000178 7.7e-5.04903-.0098.04883-.0098z" color="#000000" style="-inkscape-stroke:none"/>
   <path d="m40.272 47.287a.0015305.0015305 0 01-.0015.0015.0015305.0015305 0 01-.0015-.0015.0015305.0015305 0 01.0015-.0015.0015305.0015305 0 01.0015.0015z" color="#000000" fill="#222445" stroke-width=".26458" style="-inkscape-stroke:none"/>
   <path d="m40.268 47.152c-.000205 4e-6-.0506.01164-.05078.01172-.000178 7.8e-5-.04088.02721-.04102.02734-.000135.000135-.02727.04279-.02734.04297-7.7e-5.000178-.01171.04862-.01172.04883v.0059c4e-6.000206.01164.0506.01172.05078 7.8e-5.000178.02721.04088.02734.04102.000135.000136.04084.02922.04102.0293.000178 7.7e-5.05058.0098.05078.0098h.0059c.000206-4e-6.0506-.0097.05078-.0098.000178-7.7e-5.04088-.02916.04102-.0293.000136-.000135.02922-.04084.0293-.04102 7.7e-5-.000178.0098-.05058.0098-.05078v-.0059c-4e-6-.000205-.0097-.04865-.0098-.04883-7.7e-5-.000178-.02916-.04283-.0293-.04297-.000135-.000135-.04084-.02727-.04102-.02734-.000178-7.7e-5-.05058-.01171-.05078-.01172h-.002zm0 .0039h.0059c-.000205-4e-6.04901.0098.04883.0098-.000178-7.8e-5.04115.02748.04102.02734-.000135-.000135.02742.04119.02734.04102-7.7e-5-.000178.01172.04903.01172.04883v.0059c4e-6-.000205-.0118.04901-.01172.04883 7.7e-5-.000178-.02748.04115-.02734.04102.000135-.000135-.04119.02742-.04102.02734.000177-7.7e-5-.04903.01172-.04883.01172h-.0059c.000206 4e-6-.04901-.0118-.04883-.01172.000178 7.7e-5-.04115-.02748-.04102-.02734.000136.000135-.02742-.04119-.02734-.04102 7.7e-5.000177-.0098-.04903-.0098-.04883v-.0059c-4e-6.000206.0098-.04901.0098-.04883-7.8e-5.000178.02748-.04115.02734-.04102-.000135.000136.04119-.02742.04102-.02734-.000178 7.7e-5.04903-.0098.04883-.0098z" color="#000000" style="-inkscape-stroke:none"/>
  </g>
 </g>
</svg>
