<svg width="117.34mm" height="130.48mm" version="1.1" viewBox="0 0 117.34 130.48" xmlns="http://www.w3.org/2000/svg">
 <g transform="translate(-45.45 -69.417)">
  <path d="m151.77 70.967a5.2917 5.2917 0 00-7.4836 0l-40.166 40.166-40.166-40.166a5.2917 5.2917 0 00-7.4835 0l-9.4725 9.4725a5.2917 5.2917 0 001e-6 7.4836l53.38 53.38a5.2917 5.2917 0 007.4836 0l53.38-53.38a5.2917 5.2917 0 000-7.4836z" style="paint-order:fill markers stroke"/>
  <path d="m151.77 128.01a5.2917 5.2917 0 00-7.4836 0l-40.166 40.166-40.166-40.166a5.2917 5.2917 0 00-7.4835 0l-9.4725 9.4725a5.2917 5.2917 0 001e-6 7.4836l53.38 53.38a5.2917 5.2917 0 007.4836 0l53.38-53.38a5.2917 5.2917 0 000-7.4836z" style="paint-order:fill markers stroke"/>
 </g>
</svg>
