<svg width="18.006mm" height="9.2314mm" version="1.1" viewBox="0 0 18.006 9.2314" xmlns="http://www.w3.org/2000/svg">
 <text transform="scale(.26458)" font-family="Georgia" font-size="40px" style="line-height:1.25;shape-inside:url(#rect6448);white-space:pre" xml:space="preserve"/>
 <g transform="matrix(.26458 0 0 .32254 -18.442 -70.877)" fill="#3f4381" stroke="#000" stroke-width=".9057" style="shape-inside:url(#rect8646);white-space:pre" aria-label="HD">
  <path d="m103.98 247.91h-14.98v-1.5234q.48828-.0391 1.4258-.11719.9375-.0781 1.2891-.23437.72266-.29297.99609-.76172.27344-.48828.27344-1.2305v-9.5508h-11.836v9.3359q0 .66406.27344 1.1914.29297.52735.97656.82031.37109.15625 1.2695.33204.89844.17578 1.4648.21484v1.5234h-14.98v-1.5234q.48828-.0195 1.4258-.11719.95703-.11719 1.3867-.27344.70312-.2539.97656-.76171.27344-.52735.27344-1.2305v-19.609q0-.68359-.25391-1.1523-.23438-.46875-.99609-.82031-.56641-.25391-1.4844-.44922-.91797-.21485-1.3281-.25391v-1.5234h14.98v1.5234q-.60547.0391-1.4453.19531-.83984.15625-1.2891.29297-.76172.25391-1.0156.82031-.23438.54688-.23438 1.1719v8.2812h11.836v-8.0859q0-.68359-.25391-1.1523t-1.0156-.82031q-.50781-.23438-1.3672-.42969-.83984-.21485-1.3477-.27344v-1.5234h14.98v1.5234q-.625.0391-1.4062.17578-.78125.11719-1.4062.3125-.74219.25391-.9961.80078-.2539.54688-.2539 1.1914v19.629q0 .70312.2539 1.1914.25391.48828.9961.82031.46875.19532 1.3476.35157.89844.15625 1.4648.19531z"/>
  <path d="m131.64 223.05q2.5391 1.6602 4.1016 4.4336 1.5625 2.7539 1.5625 6.7578 0 3.5156-1.4062 6.1328-1.3867 2.5977-3.6914 4.2578-2.3438 1.6602-5.332 2.4805-2.9688.80078-6.2305.80078h-13.965v-1.5234q.625-.0195 1.5625-.11719.9375-.0977 1.25-.23437.70312-.29297.97656-.78125.27344-.50782.27344-1.2109v-19.648q0-.66406-.25391-1.1914-.2539-.54688-.99609-.87891t-1.582-.44922q-.82032-.11719-1.2695-.15625v-1.5234h14.746q2.3633 0 5.0586.60547t5.1953 2.2461zm-3.9844 19.863q.95703-1.5625 1.3867-3.7109.44922-2.168.44922-4.9805 0-2.7539-.58594-5.0195-.58594-2.2656-1.7188-3.8672t-2.832-2.4805q-1.6797-.8789-3.8281-.8789-.68359 0-1.5625.0391-.85937.0195-1.2891.0391v21.035q0 .70312.17578 1.25.19532.52734.64453.9375.44922.41015 1.0938.64453.66407.21484 1.7188.21484 2.207 0 3.7891-.82031t2.5586-2.4023z"/>
 </g>
</svg>
