<svg width="91.068mm" height="88.438mm" version="1.1" viewBox="0 0 91.068 88.438" xmlns="http://www.w3.org/2000/svg">
 <path d="m45.534.24987a45.284 44.005 0 00-3.467.24081v26.682h-32.782a40.248 40.248 0 0124.375-21.357v2.9373a37.5 37.5 0 00-.000516 0v3.2055a34.507 34.507 0 01.000516 0v2.6562a32 32 0 00-.000516 0v5.6415h-12.691a34.507 34.507 0 017.6915-6.0275v2.85a32 32 0 00-1.5363 1.1777h3.5362v-8.2383a37.5 37.5 0 00-16.494 14.155h23.902v-23.259a45.284 44.005 0 00-35.886 30.778h86.706a45.284 44.005 0 00-35.886-30.778v23.259h23.959a37.5 37.5 0 00-16.551-14.181v8.2641h3.5781a32 32 0 00-1.5782-1.2128v-2.9006a34.507 34.507 0 017.7675 6.1133h-12.767v-14.469a40.248 40.248 0 0124.462 21.385h-32.869v-26.682a45.284 44.005 0 00-3.4675-.24081zm-44.075 34.442a45.284 44.005 0 00-1.2087 9.5622 45.284 44.005 0 00.1695 2.3451h5.0436a40.248 40.248 0 01-.17725-2.3678 40.248 40.248 0 01.39842-5.5697h79.704a40.248 40.248 0 01.39429 5.5697 40.248 40.248 0 01-.17725 2.3678h5.0436a45.284 44.005 0 00.16898-2.3451 45.284 44.005 0 00-1.2087-9.5622h-83.085zm6.7748 6.9701a37.5 37.5 0 00-.19947 2.5694 37.5 37.5 0 00.19379 2.3678h8.8666v2.9998h-16.458a45.284 44.005 0 00.69401 3.4572h88.409a45.284 44.005 0 00.6935-3.4572h-16.459v-2.9998h8.8687a37.5 37.5 0 00.19224-2.3678 37.5 37.5 0 00-.19327-2.5694h-43.401zm12.861 4.9372h48.878v2.9998h-48.878zm-19.101 9.4573a45.284 44.005 0 0041.587 32.131v-24.995h-30.271a37.5 37.5 0 0023.552 17.377v-10.461h-9.9136a32 32 0 006.9138 3.8359v2.6696a34.507 34.507 0 01-13.894-9.5054h3.3765a32 32 0 00.0078.007v-.007h16.51v8.5364a32 32 0 00.000516 0v2.5254a34.507 34.507 0 01-.000516 0v3.0985a37.5 37.5 0 00.000516 0v2.7942a40.248 40.248 0 01-31.247-23.871h73.865a40.248 40.248 0 01-31.275 23.875v-16.958h16.51v.0744a32 32 0 00.0863-.0744h3.375a34.507 34.507 0 01-13.971 9.5953v-2.6872a32 32 0 007.0218-3.9083h-10.022v10.464a37.5 37.5 0 0023.532-17.38h-30.157v24.992a45.284 44.005 0 0041.493-32.128h-82.01z" fill="#dd4829" stroke="#000" stroke-linecap="round" stroke-linejoin="round" stroke-width=".5" style="paint-order:fill markers stroke"/>
 <g transform="translate(123.77 142.27)">
  <g transform="matrix(-1 0 0 1 114.98 98.275)"></g>
 </g>
 <g transform="translate(110.93 -.42099)">
  <g fill="#f0f">
   <path transform="matrix(.26458 0 0 .26458 -5.154 3.2199)" d="m168.23-8.875v93.977h-100.01v11.338h115.13v-105.31z" style="paint-order:fill markers stroke"/>
   <path transform="scale(.26458)" d="m120.75 33.73v41.18h-29.346v7.5586h40.684v-48.738z" style="paint-order:fill markers stroke"/>
   <path transform="scale(.26458)" d="m6.916 125.69v11.338h340.11v-11.338h-170.05z" style="paint-order:fill markers stroke"/>
   <rect x="7.9243" y="40.225" width="44.993" height="3" style="paint-order:fill markers stroke"/>
   <path transform="scale(.26458)" d="m5.7129 206.44v11.34h342.51v-11.34h-172.46z" style="paint-order:fill markers stroke"/>
   <path transform="scale(.26458)" d="m3.6973 182.03v11.338h65.785v-11.338zm80.904 0v11.338h184.74v-11.338h-95.588zm199.86 0v11.338h65.785v-11.338z" style="paint-order:fill markers stroke"/>
   <path transform="matrix(.26458 0 0 .26458 -5.154 3.2199)" d="m209.55 9.5586v10.447a141.73 141.73 0 0115.117 2.3789v-10.617a152.12 152.12 0 00-15.117-2.209zm-26.209.029297a152.12 152.12 0 00-15.117 2.2422v10.6a141.73 141.73 0 0115.117-2.4023zm57.984 6.0254v11.133a141.73 141.73 0 0180.854 69.693h11.6a152.12 152.12 0 00-92.453-80.826zm-89.76.10742a152.12 152.12 0 00-92.125 80.719h11.488a141.73 141.73 0 0180.637-69.617zm57.984 15.658v9.3906a120.94 120.94 0 0115.117 2.6016v-9.4141a130.42 130.42 0 00-15.117-2.5781zm-26.209.0293a130.42 130.42 0 00-15.117 2.6152v9.4805a120.94 120.94 0 0115.117-2.6719zm57.984 7.418v9.9316a120.94 120.94 0 0111.338 5.1152v-10.629a130.42 130.42 0 00-11.338-4.418zm-89.76.11132a130.42 130.42 0 00-11.338 4.4531v10.77a120.94 120.94 0 0111.338-5.1836zm108.66 8.2559v10.963a120.94 120.94 0 0115.801 12.143h13.557a130.42 130.42 0 00-29.357-23.105zm-127.55.32422a130.42 130.42 0 00-29.07 22.781h13.404a120.94 120.94 0 0115.666-12.01zm-41.279 37.584a130.42 130.42 0 00-7.4707 11.338h10.969a120.94 120.94 0 018.291-11.338zm198.43 0a120.94 120.94 0 018.2695 11.338h11.062a130.42 130.42 0 00-7.4297-11.338zm-237.13 28.42a152.12 152.12 0 00-3.6719 11.338h10.602a141.73 141.73 0 013.8828-11.338zm23.176 0a130.42 130.42 0 00-4.0664 11.338h9.8965a120.94 120.94 0 014.4023-11.338zm231 0a120.94 120.94 0 014.3887 11.338h9.9453a130.42 130.42 0 00-4.0371-11.338zm22.76 0a141.73 141.73 0 013.8828 11.338h10.711a152.12 152.12 0 00-3.6719-11.338zm-283.79 26.342a152.12 152.12 0 00-1.5059 21.051 152.12 152.12 0 001.5176 20.287h10.527a141.73 141.73 0 01-1.6582-20.287 141.73 141.73 0 011.6348-21.051zm22.531 0a130.42 130.42 0 00-1.6699 11.338h9.5234a120.94 120.94 0 011.8008-11.338zm246.53 0a120.94 120.94 0 011.7891 11.338h9.5352a130.42 130.42 0 00-1.6426-11.338zm21.701 0a141.73 141.73 0 011.582 21.051 141.73 141.73 0 01-1.6465 20.287h10.516a152.12 152.12 0 001.5195-20.287 152.12 152.12 0 00-1.4902-21.051zm-270.05 30a130.42 130.42 0 001.459 11.338h9.6387a120.94 120.94 0 01-1.5762-11.338zm250.3 0a120.94 120.94 0 01-1.5508 11.338h9.6445a130.42 130.42 0 001.4277-11.338zm-268.38 24.404a152.12 152.12 0 002.582 11.34h10.934a141.73 141.73 0 01-3.1152-11.34zm22.373 0a130.42 130.42 0 003.5215 11.34h10.188a120.94 120.94 0 01-3.834-11.34zm241.42 0a120.94 120.94 0 01-3.8047 11.34h10.201a130.42 130.42 0 003.4883-11.34zm21.793 0a141.73 141.73 0 01-3.1055 11.34h10.895a152.12 152.12 0 002.584-11.34zm-277.14 26.971a152.12 152.12 0 00118.1 90.221v-10.561a141.73 141.73 0 01-100.36-68.32h114.41v98.297h15.117v-109.64h-139.3zm243.95 0a120.94 120.94 0 01-7.5586 11.34h11.422a130.42 130.42 0 007.0137-11.34zm23.826 0a141.73 141.73 0 01-106.8 79.676v10.559a152.12 152.12 0 00118.2-90.234zm-224.87 26.141a130.42 130.42 0 0052.514 35.926v-10.09a120.94 120.94 0 01-39.752-25.836zm180.79 0a120.94 120.94 0 01-40.049 26.109v10.156a130.42 130.42 0 0052.805-36.266zm-116.94 29.865v9.6719a130.42 130.42 0 0011.34 2.2715v-9.5449a120.94 120.94 0 01-11.34-2.3984zm65.553.0488a120.94 120.94 0 01-11.34 2.3828v9.6465a130.42 130.42 0 0011.34-2.1953z" style="paint-order:fill markers stroke"/>
   <path transform="scale(.26458)" d="m93.133 259.55v11.338h51.061v47.014h11.34v-58.352h-11.34z" style="paint-order:fill markers stroke"/>
  </g>
  <g transform="matrix(-1 0 0 1 114.98 98.275)">
   <g transform="translate(21.333 -98.275)" fill="#f0f">
    <path transform="matrix(-.26458 0 0 .26458 98.801 3.2199)" d="m209.55-8.875v105.31h115.13v-11.338h-100.01v-93.977z" style="paint-order:fill markers stroke"/>
    <path transform="scale(.26458)" d="m120.75 33.73v41.18h-29.346v7.5586h40.684v-48.738z" style="paint-order:fill markers stroke"/>
    <rect x="7.9243" y="40.225" width="44.993" height="3" style="paint-order:fill markers stroke"/>
    <path transform="matrix(-.26458 0 0 .26458 114.98 -98.275)" d="m249.86 604.84v11.34h139.3v-11.34z" style="paint-order:fill markers stroke"/>
    <path transform="scale(.26458)" d="m93.133 259.55v11.338h51.061v47.014h11.34v-58.352h-11.34z" style="paint-order:fill markers stroke"/>
   </g>
  </g>
 </g>
</svg>
