<svg width="28.852mm" height="23.892mm" version="1.1" viewBox="0 0 28.852 23.892" xmlns="http://www.w3.org/2000/svg" xmlns:xlink="http://www.w3.org/1999/xlink">
 <defs>
  <linearGradient id="linearGradient75453" x1="406.02" x2="404.11" y1="375.31" y2="440.18" gradientTransform="matrix(.26458 0 0 .26458 -42.147 -63.922)" gradientUnits="userSpaceOnUse" xlink:href="#linearGradient73125"/>
  <linearGradient id="linearGradient73125">
   <stop stop-color="#6493ff" offset="0"/>
   <stop stop-color="#fff" offset="1"/>
  </linearGradient>
  <linearGradient id="linearGradient75473" x1="368.67" x2="368.67" y1="374.06" y2="435.12" gradientTransform="matrix(.26458 0 0 .26458 -32.449 -58.398)" gradientUnits="userSpaceOnUse" xlink:href="#linearGradient73125"/>
  <linearGradient id="linearGradient3209" x1="406.02" x2="404.11" y1="375.31" y2="440.18" gradientTransform="matrix(.26458 0 0 .26458 -52.777 -67.177)" gradientUnits="userSpaceOnUse" xlink:href="#linearGradient73125"/>
  <linearGradient id="linearGradient3211" x1="368.67" x2="368.67" y1="374.06" y2="435.12" gradientTransform="matrix(.26458 0 0 .26458 -43.079 -61.653)" gradientUnits="userSpaceOnUse" xlink:href="#linearGradient73125"/>
  <linearGradient id="linearGradient3531" x1="21.695" x2="21.669" y1="36.378" y2="53.668" gradientTransform="translate(-10.63 -3.255)" gradientUnits="userSpaceOnUse" xlink:href="#linearGradient73125"/>
  <linearGradient id="linearGradient3533" x1="34.246" x2="34.664" y1="41.637" y2="57.981" gradientTransform="translate(-10.63 -3.255)" gradientUnits="userSpaceOnUse" xlink:href="#linearGradient73125"/>
  <filter id="filter5134" x="-.094335" y="-.069518" width="1.1859" height="1.139" color-interpolation-filters="sRGB">
   <feGaussianBlur stdDeviation="0.27808405"/>
  </filter>
  <filter id="filter5138" x="-.074468" y="-.11074" width="1.1489" height="1.2157" color-interpolation-filters="sRGB">
   <feGaussianBlur stdDeviation="0.27808405"/>
  </filter>
 </defs>
 <g transform="translate(-28.302 -13.246)">
  <g transform="translate(25.081 -18.958)">
   <path d="m17.649 35.455-1.6743 1.2278q-.18604-1.1534-.60772-1.6247-.42168-.48369-1.2526-.48369-1.0914 0-1.9224.88056-.81856.88057-.81856 2.0588 0 1.4759 2.2572 3.1874.33486.26045.5085.39688 1.0666.83096 1.4263 1.4387.35967.59531.35967 1.4015 0 1.141-.66973 2.2944-.66973 1.141-1.8976 2.1084-1.1162.86816-2.4433 1.3394-1.3271.48369-2.6169.48369-1.2154 0-2.1332-.42168-.91777-.40927-1.6991-1.327l1.0666-2.6665.42168-.27285q.04961 1.5007 1.1782 2.5053 1.141.99219 2.7905.99219 1.6743 0 2.8773-1.1038 1.2154-1.1038 1.2154-2.6045 0-.76895-.37207-1.4015-.37207-.63252-1.7115-1.7487-2.2076-1.8604-2.2076-3.3238 0-.93017.47129-1.8852.47129-.95498 1.3519-1.7983.86816-.83096 1.8355-1.2774.97979-.45889 1.8976-.45889 1.0914 0 1.6495.5085.55811.49609.71934 1.5751z" fill="url(#linearGradient3209)" filter="url(#filter5134)" stroke="url(#linearGradient3531)" style="white-space:pre"/>
   <path d="m30.335 47.056q.28525.64492.42168 1.203.14883.5457.14883 1.0294 0 .99219-.91777 2.0712l-.06201.0744q-.32246.38447-.84336 1.0418-.78135.96738-.97978 1.1286-.42168.37207-.85576.5209-.42168.14882-1.1782.14882-1.7983 0-4.5021-.35966-2.7037-.35967-3.5967-.35967-.78135 0-1.4511.22324-.65733.21084-1.2898.66973v-.89297q.64492-.60772 1.4263-1.3643.78135-.75654 2.4061-2.3936l8.5824-8.6816q-.76894.12402-1.5007.18603-.71934.062-1.3891.062-.78135 0-1.8976-.0868t-1.4511-.0868q-.91777 0-2.1456 2.282-.34726.64493-.5457 1.017l-.35967-.63252q.45889-.97979 1.0294-2.4433.86816-2.2076 1.7363-2.2076.18604 0 2.2448.29765 2.0588.28526 3.8819.28526 1.0666 0 1.6991-.23565.64492-.23564 1.2402-.80615l.07441.74414q-2.7905 2.8029-5.8043 5.8911-3.0014 3.0882-6.4244 6.6725.31006-.0744.68213-.11163.37207-.0372 1.1162-.0372 1.1038 0 3.299.23564 2.1952.22324 3.299.22324 1.5751 0 2.2324-.44648.66973-.45889.66973-1.5131 0-.47129-.19844-1.0046-.19844-.5457-.62012-1.203z" fill="url(#linearGradient3211)" filter="url(#filter5138)" stroke="url(#linearGradient3533)" style="white-space:pre"/>
  </g>
  <g transform="translate(14.451 -22.213)" stroke="#00004c" stroke-width=".2">
   <path d="m28.279 38.71-1.6743 1.2278q-.18604-1.1534-.60772-1.6247-.42168-.48369-1.2526-.48369-1.0914 0-1.9224.88056-.81856.88057-.81856 2.0588 0 1.4759 2.2572 3.1874.33486.26045.5085.39688 1.0666.83096 1.4263 1.4387.35967.59531.35967 1.4015 0 1.141-.66973 2.2944-.66973 1.141-1.8976 2.1084-1.1162.86816-2.4433 1.3394-1.3271.48369-2.6169.48369-1.2154 0-2.1332-.42168-.91777-.40927-1.6991-1.327l1.0666-2.6665.42168-.27285q.04961 1.5007 1.1782 2.5053 1.141.99219 2.7905.99219 1.6743 0 2.8773-1.1038 1.2154-1.1038 1.2154-2.6045 0-.76895-.37207-1.4015-.37207-.63252-1.7115-1.7487-2.2076-1.8604-2.2076-3.3238 0-.93017.47129-1.8852t1.3519-1.7983q.86816-.83096 1.8355-1.2774.97979-.45889 1.8976-.45889 1.0914 0 1.6495.5085.55811.49609.71934 1.5751z" fill="url(#linearGradient75453)" style="white-space:pre"/>
   <path d="m40.965 50.311q.28525.64492.42168 1.203.14883.5457.14883 1.0294 0 .99219-.91777 2.0712l-.06201.0744q-.32246.38447-.84336 1.0418-.78135.96738-.97978 1.1286-.42168.37207-.85576.5209-.42168.14882-1.1782.14882-1.7983 0-4.5021-.35966-2.7037-.35967-3.5967-.35967-.78135 0-1.4511.22324-.65733.21084-1.2898.66973v-.89297q.64492-.60772 1.4263-1.3643.78135-.75654 2.4061-2.3936l8.5824-8.6816q-.76894.12402-1.5007.18603-.71934.062-1.3891.062-.78135 0-1.8976-.0868t-1.4511-.0868q-.91777 0-2.1456 2.282-.34726.64493-.5457 1.017l-.35967-.63252q.45889-.97979 1.0294-2.4433.86816-2.2076 1.7363-2.2076.18604 0 2.2448.29765 2.0588.28526 3.8819.28526 1.0666 0 1.6991-.23565.64492-.23564 1.2402-.80615l.07441.74414q-2.7905 2.8029-5.8043 5.8911-3.0014 3.0882-6.4244 6.6725.31006-.0744.68213-.11163.37207-.0372 1.1162-.0372 1.1038 0 3.299.23564 2.1952.22324 3.299.22324 1.5751 0 2.2324-.44648.66973-.45889.66973-1.5131 0-.47129-.19844-1.0046-.19844-.5457-.62012-1.203z" fill="url(#linearGradient75473)" style="white-space:pre"/>
  </g>
 </g>
</svg>
